<svg width="39" height="26" viewBox="0 0 39 26" fill="none" xmlns="http://www.w3.org/2000/svg">
<path d="M23.4107 25.9702C22.1401 26.0056 20.8817 25.7082 19.7546 25.106C18.6276 24.5038 17.6692 23.6169 16.9703 22.5291C14.7702 24.6372 11.9005 25.8594 8.89013 25.9702C3.49678 25.9702 0.57292 22.0737 1.56071 16.4869C2.31143 12.2868 5.66993 8.07647 6.60833 4.69609C4.79079 3.56255 2.09412 2.77312 0.829746 5.09081L0 4.57464C0.661821 2.0343 2.26204 0.34411 4.57348 0.34411C6.88491 0.34411 8.59379 1.75091 10.7966 0.455441H12.5548C11.6164 5.51589 9.24574 9.56424 7.98136 16.6489C7.21088 20.9907 8.64318 22.9643 11.0633 22.9643C12.8579 22.7327 14.505 21.8276 15.6861 20.424C14.7201 17.9495 14.2336 15.306 14.2538 12.641C14.2538 6.48749 17.0098 0 21.6327 0C24.0034 0 25.7616 1.69019 25.7616 5.69806C25.7616 9.70593 23.3909 15.91 20.3683 19.8066C20.5316 20.7344 21.0057 21.5747 21.709 22.1825C22.4123 22.7904 23.3006 23.1277 24.2207 23.1364C28.6262 23.1364 31.7081 16.3655 31.7081 10.1006C31.7081 3.83582 29.0609 4.1192 29.288 2.00394C29.3285 1.4721 29.5722 0.978121 29.9662 0.629399C30.3602 0.280677 30.8726 0.105407 31.392 0.141693C32.7651 0.141693 34.5727 1.92297 34.5727 9.14928C34.5727 18.3593 29.7918 25.9702 23.4107 25.9702ZM22.413 3.17796C21.04 3.17796 19.7163 8.36997 19.5484 13.734C19.4843 14.881 19.5041 16.0312 19.6077 17.1751C21.6824 13.6574 22.9459 9.70086 23.302 5.60697C23.2921 3.78521 22.9662 3.17796 22.413 3.17796Z" fill="#8844EE"/>
</svg>
